<?xml version="1.0" standalone="no"?><!DOCTYPE svg PUBLIC "-//W3C//DTD SVG 1.1//EN" "http://www.w3.org/Graphics/SVG/1.1/DTD/svg11.dtd"><svg class="icon" width="200px" height="200.00px" viewBox="0 0 1024 1024" version="1.1" xmlns="http://www.w3.org/2000/svg"><path fill="#333333" d="M832.853333 106.951111H184.32c-63.715556 0-113.777778 52.337778-113.777778 113.777778v500.622222c0 63.715556 52.337778 113.777778 113.777778 113.777778h97.848889l-20.48 70.542222c-2.275556 4.551111 0 9.102222 2.275555 11.377778 2.275556 2.275556 4.551111 2.275556 9.102223 2.275555h4.551111l186.595555-84.195555h368.64c63.715556 0 113.777778-52.337778 113.777778-113.777778v-500.622222c0-61.44-52.337778-113.777778-113.777778-113.777778zM329.955556 486.968889H225.28c-18.204444 0-34.133333-15.928889-34.133333-34.133333s15.928889-34.133333 34.133333-34.133334h102.4c18.204444 0 34.133333 15.928889 34.133333 34.133334s-13.653333 34.133333-31.857777 34.133333z m234.382222 0h-102.4c-18.204444 0-34.133333-15.928889-34.133334-34.133333s15.928889-34.133333 34.133334-34.133334h102.4c18.204444 0 34.133333 15.928889 34.133333 34.133334s-15.928889 34.133333-34.133333 34.133333z m225.28 0h-86.471111c-18.204444 0-34.133333-15.928889-34.133334-34.133333s15.928889-34.133333 34.133334-34.133334h86.471111c18.204444 0 34.133333 15.928889 34.133333 34.133334s-13.653333 34.133333-34.133333 34.133333z"  /></svg>