<?xml version="1.0" standalone="no"?><!DOCTYPE svg PUBLIC "-//W3C//DTD SVG 1.1//EN" "http://www.w3.org/Graphics/SVG/1.1/DTD/svg11.dtd"><svg class="icon" width="200px" height="200.00px" viewBox="0 0 1024 1024" version="1.1" xmlns="http://www.w3.org/2000/svg"><path fill="#333333" d="M800 32h-576a128 128 0 0 0-128 128v704a128 128 0 0 0 128 128h576a128 128 0 0 0 128-128v-704a128 128 0 0 0-128-128z m64 832a64 64 0 0 1-64 64h-576a64 64 0 0 1-64-64v-704a64 64 0 0 1 64-64h576a64 64 0 0 1 64 64v704z"  /><path fill="#333333" d="M288 736h448a32 32 0 0 1 0 64h-448a32 32 0 0 1 0-64zM288 576h448a32 32 0 0 1 0 64h-448a32 32 0 0 1 0-64zM670.4 193.6a32 32 0 0 1 0 45.248L444.096 465.152l-90.496 45.248 45.312-90.496 226.24-226.24a32 32 0 0 1 45.248-0.064z"  /></svg>