<?xml version="1.0" standalone="no"?><!DOCTYPE svg PUBLIC "-//W3C//DTD SVG 1.1//EN" "http://www.w3.org/Graphics/SVG/1.1/DTD/svg11.dtd"><svg class="icon" width="200px" height="200.00px" viewBox="0 0 1024 1024" version="1.1" xmlns="http://www.w3.org/2000/svg"><path fill="#333333" d="M692.85888 116.96128 348.18048 116.96128c-51.85536 0-93.9008 40.52992-93.9008 90.5216l0 556.2368c0 49.99168 42.04544 90.5216 93.9008 90.5216l344.65792 0c51.85536 0 93.9008-40.52992 93.9008-90.5216l0-556.2368C786.75968 157.4912 744.71424 116.96128 692.85888 116.96128zM752.59904 763.6992c0 31.80544-26.74688 57.61024-59.76064 57.61024L348.22144 821.30944c-33.01376 0-59.76064-25.78432-59.76064-57.61024l0-36.1472 464.13824 0L752.59904 763.6992zM752.59904 695.48032 288.44032 695.48032l0-436.6336 464.13824 0L752.57856 695.48032zM752.59904 225.91488 288.4608 225.91488l0-18.41152c0-31.80544 26.74688-57.61024 59.76064-57.61024L692.8384 149.89312c33.01376 0 59.76064 25.78432 59.76064 57.61024L752.59904 225.91488zM521.78944 798.208c14.31552 0 25.94816-11.22304 25.94816-25.00608 0-13.78304-11.63264-25.00608-25.94816-25.00608-14.29504 0-25.94816 11.22304-25.94816 25.00608C495.84128 786.98496 507.4944 798.208 521.78944 798.208z" /></svg>