<?xml version="1.0" standalone="no"?><!DOCTYPE svg PUBLIC "-//W3C//DTD SVG 1.1//EN" "http://www.w3.org/Graphics/SVG/1.1/DTD/svg11.dtd"><svg class="icon" width="200px" height="200.00px" viewBox="0 0 1024 1024" version="1.1" xmlns="http://www.w3.org/2000/svg"><path fill="#333333" d="M690.08 128l-356.448 0.128a23.168 23.168 0 0 0-22.72 23.392l0.256 721.056c0 12.864 10.24 23.36 22.752 23.392l356.48-0.16a23.104 23.104 0 0 0 22.72-23.392l-0.256-721.024A23.104 23.104 0 0 0 690.08 128z m-141.792 711.648c0 20.576-16.224 37.312-36.256 37.312-20 0-36.288-16.672-36.256-37.28-0.032-20.576 16.192-37.312 36.224-37.312 20.032-0.032 36.288 16.736 36.288 37.28zM695.36 229.504l0.192 530.528c0 12.864-10.24 23.392-22.72 23.392l-321.632 0.064a23.2 23.2 0 0 1-22.784-23.36l-0.16-530.528c0-12.832 10.24-23.36 22.752-23.36l321.632-0.096c12.48-0.032 22.72 10.464 22.72 23.36z"  /></svg>