<?xml version="1.0" standalone="no"?><!DOCTYPE svg PUBLIC "-//W3C//DTD SVG 1.1//EN" "http://www.w3.org/Graphics/SVG/1.1/DTD/svg11.dtd"><svg t="1530082830171" class="icon" style="" viewBox="0 0 1027 1024" version="1.1" xmlns="http://www.w3.org/2000/svg" p-id="2071" xmlns:xlink="http://www.w3.org/1999/xlink" width="200.5859375" height="200"><defs><style type="text/css"></style></defs><path d="M920.122141 75.836199l-820.906465 0c-50.327222 0-91.27175 40.944528-91.27175 91.27175l0 692.00877c0 50.328245 40.944528 91.27175 91.27175 91.27175l820.906465 0c50.327222 0 91.270726-40.944528 91.270726-91.27175L1011.392868 167.107949C1011.393891 116.780727 970.449363 75.836199 920.122141 75.836199zM99.215676 142.351102l820.906465 0c13.650905 0 24.755824 11.105942 24.755824 24.756847l0 492.720911c-46.914496-72.336492-110.60712-166.954453-145.379065-203.557092-29.553083-31.108508-59.966767-37.638225-80.276325-37.638225-0.00307 0 0.002047 0-0.001023 0-44.896536 0-77.273944 30.226418-83.743286 36.759205-13.08297 12.219299-179.912579 168.045297-200.162786 187.432857-10.619872-11.965519-49.051159-54.918797-86.132706-92.001367-23.834848-23.835871-54.854329-31.725562-87.346347-22.215978-21.236674 6.216585-35.982516 17.84339-38.721907 20.111037l-0.25992 0.214894L74.458829 676.898631l0-509.790682C74.458829 153.457044 85.564771 142.351102 99.215676 142.351102zM920.122141 883.873566l-820.906465 0c-13.650905 0-24.756847-11.106965-24.756847-24.756847l0-92.362594L265.490653 599.998193c2.296299-1.743714 8.968256-6.03546 16.266475-7.891737 8.400321-2.134617 14.120602-0.523933 20.392446 5.749958 39.07904 39.080064 81.20651 86.614683 85.658915 91.651396 4.513804 5.417383 19.348674 20.85805 42.86732 22.494317 12.373819 0.86367 31.051203-1.956561 49.753147-20.276812 9.15859-8.972349 148.204413-138.926096 201.00906-188.242292l0.531096-0.437975 0.800225-0.873903c4.881171-4.882194 20.48352-17.021675 36.46347-17.021675 0.099261 0 0.199545 0 0.298805 0.001023 10.633175 0.101307 21.017686 5.640464 31.746028 16.933671 39.418778 41.494043 146.583496 195.563024 193.60237 267.566942l0 89.465614C944.878988 872.767624 933.773046 883.873566 920.122141 883.873566z" p-id="2072"></path><path d="M275.135314 442.432575c52.972469 0 96.067986-43.096541 96.067986-96.067986s-43.095517-96.067986-96.067986-96.067986-96.067986 43.095517-96.067986 96.067986S222.162846 442.432575 275.135314 442.432575zM275.135314 316.810482c16.295128 0 29.553083 13.257955 29.553083 29.553083 0 16.296151-13.257955 29.553083-29.553083 29.553083s-29.553083-13.257955-29.553083-29.553083C245.582231 330.068438 258.840186 316.810482 275.135314 316.810482z" p-id="2073"></path></svg>